HIERARCHY
ROOT ui
{
	 OFFSET 0 0 0
	 CHANNELS 3 XPosition YPosition Z Position
	 EndSite
	 {
	 OFFSET 0 -1 0
	 }
}
ROOT li
{
	 OFFSET 0 0 0
	 CHANNELS 3 XPosition YPosition Z Position
	 EndSite
	 {
	 OFFSET 0 -1 0
	 }
}
ROOT ul
{
	 OFFSET 0 0 0
	 CHANNELS 3 XPosition YPosition Z Position
	 EndSite
	 {
	 OFFSET 0 -1 0
	 }
}
ROOT ll
{
	 OFFSET 0 0 0
	 CHANNELS 3 XPosition YPosition Z Position
	 EndSite
	 {
	 OFFSET 0 -1 0
	 }
}
ROOT tt
{
	 OFFSET 0 0 0
	 CHANNELS 3 XPosition YPosition Z Position
	 EndSite
	 {
	 OFFSET 0 -1 0
	 }
}
ROOT tb
{
	 OFFSET 0 0 0
	 CHANNELS 3 XPosition YPosition Z Position
	 EndSite
	 {
	 OFFSET 0 -1 0
	 }
}
ROOT td
{
	 OFFSET 0 0 0
	 CHANNELS 3 XPosition YPosition Z Position
	 EndSite
	 {
	 OFFSET 0 -1 0
	 }
}
ROOT v
{
	 OFFSET 0 0 0
	 CHANNELS 3 XPosition YPosition Z Position
	 EndSite
	 {
	 OFFSET 0 -1 0
	 }
}
ROOT bn
{
	 OFFSET 0 0 0
	 CHANNELS 3 XPosition YPosition Z Position
	 EndSite
	 {
	 OFFSET 0 -1 0
	 }
}
MOTION
Frames: 21
Frame Time: 0.002
-0.05541007995605469	-0.0021041040420532228	0		0.48943869018554687	-2.354828125	0		-1.158488525390625	0.09323777008056641	0		-0.4459447631835938	-2.679231689453125	0		2.171515869140625	-1.0910487060546874	0		3.521849609375	-0.8709151000976563	0		4.789453125	-0.23490925598144533	0		5.9984365234375	0.45447445678710935	0		-0.40342987060546875	5.83578076171875	0		
0.025291284561157226	-0.0010675259828567506	0		0.5222083740234374	-2.35128857421875	0		-1.1107359619140624	0.09959137725830078	0		-0.4991745910644531	-2.675828125	0		2.1489208984375	-1.0229059448242188	0		3.507044677734375	-0.8228273315429687	0		4.78608154296875	-0.24091734313964844	0		5.99528515625	0.4372205810546875	0		-0.38874502563476565	5.8464873046875	0		
-0.05597104644775391	0.005613636016845703	0		0.5229146118164063	-2.35143994140625	0		-1.0751082763671875	0.0950579605102539	0		-0.4503431701660156	-2.664486572265625	0		2.143324951171875	-0.9529653930664063	0		3.46171044921875	-0.824463623046875	0		4.7787880859375	-0.2379244842529297	0		5.99212548828125	0.41988812255859376	0		-0.38429196166992186	5.83328271484375	0		
0.023582897186279296	-0.004370195865631104	0		0.5475343627929687	-2.356855712890625	0		-1.0913863525390626	0.1020462875366211	0		-0.4886763000488281	-2.665266845703125	0		2.123599365234375	-0.8929088745117187	0		3.462552734375	-0.8066076049804688	0		4.76926708984375	-0.25495199584960937	0		5.9791552734375	0.4476972351074219	0		-0.41874542236328127	5.82846240234375	0		
-0.05277886962890625	-0.0027733099460601806	0		0.5221981201171875	-2.353779052734375	0		-1.0907628173828126	0.10185175323486328	0		-0.4520761108398437	-2.66882763671875	0		2.116912109375	-0.8260144653320313	0		3.450251708984375	-0.7996544189453125	0		4.749892578125	-0.2549225311279297	0		5.9696513671875	0.45629876708984374	0		-0.38408111572265624	5.833921875	0		
0.019855228424072266	2.8421199321746827E-4	0		0.5248074951171875	-2.3520068359375	0		-1.09016552734375	0.1016498794555664	0		-0.522423095703125	-2.662305419921875	0		2.1072333984375	-0.7551183471679688	0		3.42725634765625	-0.759628173828125	0		4.75048876953125	-0.25514419555664064	0		5.97007763671875	0.45590789794921877	0		-0.4374718322753906	5.83327001953125	0		
-0.05655730438232422	0.0018539940118789673	0		0.5273861694335937	-2.349251953125	0		-1.0895911865234376	0.10144268798828125	0		-0.44992306518554687	-2.667256103515625	0		2.098587890625	-0.67826123046875	0		3.430780517578125	-0.7639140625	0		4.75105908203125	-0.2554136962890625	0		5.9746923828125	0.438012939453125	0		-0.40376641845703126	5.8397177734375	0		
0.02896430969238281	-0.0022477290630340575	0		0.5299203491210938	-2.3475126953125	0		-1.089032470703125	0.10123214721679688	0		-0.4843825073242187	-2.664119140625	0		2.100748046875	-0.618543701171875	0		3.41167333984375	-0.7300040893554688	0		4.73856103515625	-0.26059771728515624	0		5.96292138671875	0.4273454895019531	0		-0.417204345703125	5.829638671875	0		
0.02153593635559082	-4.069859981536865E-4	0		0.53553271484375	-2.3358193359375	0		-1.0124934692382812	0.09923802185058593	0		-0.4747992248535156	-2.6544404296875	0		2.1028896484375	-0.5598528442382813	0		3.381309326171875	-0.7200157470703125	0		4.73013623046875	-0.2578701477050781	0		5.9624765625	0.397266357421875	0		-0.4184801940917969	5.83142919921875	0		
0.022089426040649413	-6.569439768791199E-4	0		0.5199456787109376	-2.34192138671875	0		-1.093870361328125	0.10586945343017579	0		-0.4654500732421875	-2.665765869140625	0		2.105033203125	-0.5011871032714844	0		3.356097900390625	-0.6951129150390625	0		4.72253662109375	-0.27219692993164063	0		5.96287109375	0.3964820556640625	0		-0.41772833251953123	5.8311943359375	0		
0.027597843170166017	-0.00596521520614624	0		0.5333668212890625	-2.346333251953125	0		-1.08332666015625	0.1035555419921875	0		-0.45106317138671875	-2.67214697265625	0		2.086113037109375	-0.4493258056640625	0		3.3675458984375	-0.7036217041015626	0		4.7171484375	-0.26658700561523435	0		5.96116845703125	0.4043116455078125	0		-0.4018331298828125	5.8397998046875	0		
0.026246742248535158	0.0017938820123672486	0		0.5109032287597656	-2.338380126953125	0		-1.14662744140625	0.11601399230957031	0		-0.47851104736328126	-2.66109423828125	0		2.10518701171875	-0.3988772277832031	0		3.341641357421875	-0.649766845703125	0		4.71584716796875	-0.25305584716796875	0		5.961572265625	0.4033581848144531	0		-0.36791278076171874	5.84621533203125	0		
0.026809656143188476	0.0015312099456787109	0		0.5454508666992187	-2.32802587890625	0		-1.0030660400390625	0.11431874847412109	0		-0.4580745849609375	-2.65953857421875	0		2.1061572265625	-0.35825634765625	0		3.3271796875	-0.6490546875	0		4.71621826171875	-0.27057522583007815	0		5.960591796875	0.4127516784667969	0		-0.40205828857421877	5.8433408203125	0		
-0.05266059875488281	1.1253900080919265E-4	0		0.4939114074707031	-2.322771240234375	0		-1.084445068359375	0.12098319244384766	0		-0.47061529541015623	-2.6526337890625	0		2.079988525390625	-0.32936099243164063	0		3.31300341796875	-0.6193598022460938	0		4.702685546875	-0.27697320556640626	0		5.946154296875	0.44665362548828125	0		-0.41627236938476564	5.8322646484375	0		
0.024838958740234375	-0.0019546509981155395	0		0.5182296752929687	-2.3273125	0		-1.0079375610351562	0.11899433135986329	0		-0.47027496337890623	-2.652857666015625	0		2.053631103515625	-0.3154671630859375	0		3.306562255859375	-0.6117584838867187	0		4.6952138671875	-0.2744522399902344	0		5.9456884765625	0.41787359619140624	0		-0.4012486572265625	5.8438876953125	0		
-0.05167663192749023	-3.8269200921058657E-4	0		0.46761474609375	-2.320052490234375	0		-1.122442626953125	0.12104341125488281	0		-0.5059560241699219	-2.649688720703125	0		2.04899365234375	-0.3238037109375	0		3.301192138671875	-0.5931731567382813	0		4.69364306640625	-0.27700497436523436	0		5.9411220703125	0.4376138916015625	0		-0.3872452392578125	5.85552880859375	0		
0.02875491714477539	5.250719785690307E-4	0		0.5228263549804687	-2.32391357421875	0		-1.069904052734375	0.1313286895751953	0		-0.53867724609375	-2.644534912109375	0		2.051385009765625	-0.324210205078125	0		3.30156396484375	-0.593648681640625	0		4.6891240234375	-0.26952792358398436	0		5.94421826171875	0.42427377319335935	0		-0.3732899169921875	5.8661796875	0		
-0.04787655258178711	0.002132028102874756	0		0.4891618957519531	-2.30980859375	0		-1.0654981689453125	0.13514067077636718	0		-0.46960919189453126	-2.653464111328125	0		2.0394879150390626	-0.34545346069335936	0		3.2832529296875	-0.5589114990234375	0		4.67149072265625	-0.2669018249511719	0		5.91664794921875	0.4221263732910156	0		-0.37250509643554686	5.86598388671875	0		
0.029395744323730467	9.092999994754791E-5	0		0.5211038208007812	-2.3263984375	0		-1.077091064453125	0.1451422882080078	0		-0.48245034790039065	-2.6474951171875	0		2.0185445556640627	-0.36458013916015625	0		3.28952099609375	-0.5574246215820312	0		4.67667138671875	-0.27550537109375	0		5.91546630859375	0.4297019958496094	0		-0.37275411987304685	5.8688154296875	0		
-0.04736833190917969	0.0017451119422912597	0		0.48527987670898437	-2.3152294921875	0		-1.0768603515625	0.14503237915039063	0		-0.486463623046875	-2.651603515625	0		1.98468603515625	-0.3695394592285156	0		3.252922607421875	-0.5374437866210937	0		4.6719599609375	-0.26797396850585936	0		5.9233212890625	0.39556460571289065	0		-0.3249290771484375	5.88513916015625	0		
0.029769819259643556	-2.6578399538993835E-4	0		0.4951746826171875	-2.324537841796875	0		-1.1047059326171875	0.14424977111816406	0		-0.5085348510742187	-2.65549267578125	0		1.97867138671875	-0.38277426147460936	0		3.292992919921875	-0.5422733764648437	0		4.6700732421875	-0.2704381713867188	0		5.9234306640625	0.39457174682617185	0		-0.35645721435546873	5.87734912109375	0		
